<svg width="66" height="66" viewBox="0 0 66 66" fill="none" xmlns="http://www.w3.org/2000/svg">
<path d="M8.25 11C8.25 10.2707 8.53973 9.57118 9.05546 9.05546C9.57118 8.53973 10.2707 8.25 11 8.25H19.25C19.9793 8.25 20.6788 8.53973 21.1945 9.05546C21.7103 9.57118 22 10.2707 22 11V19.25C22 19.9793 21.7103 20.6788 21.1945 21.1945C20.6788 21.7103 19.9793 22 19.25 22H11C10.2707 22 9.57118 21.7103 9.05546 21.1945C8.53973 20.6788 8.25 19.9793 8.25 19.25V11ZM8.25 28.875C8.25 28.1457 8.53973 27.4462 9.05546 26.9305C9.57118 26.4147 10.2707 26.125 11 26.125H19.25C19.9793 26.125 20.6788 26.4147 21.1945 26.9305C21.7103 27.4462 22 28.1457 22 28.875V37.125C22 37.8543 21.7103 38.5538 21.1945 39.0695C20.6788 39.5853 19.9793 39.875 19.25 39.875H11C10.2707 39.875 9.57118 39.5853 9.05546 39.0695C8.53973 38.5538 8.25 37.8543 8.25 37.125V28.875ZM8.25 46.75C8.25 46.0207 8.53973 45.3212 9.05546 44.8055C9.57118 44.2897 10.2707 44 11 44H19.25C19.9793 44 20.6788 44.2897 21.1945 44.8055C21.7103 45.3212 22 46.0207 22 46.75V55C22 55.7293 21.7103 56.4288 21.1945 56.9445C20.6788 57.4603 19.9793 57.75 19.25 57.75H11C10.2707 57.75 9.57118 57.4603 9.05546 56.9445C8.53973 56.4288 8.25 55.7293 8.25 55V46.75ZM26.125 11C26.125 10.2707 26.4147 9.57118 26.9305 9.05546C27.4462 8.53973 28.1457 8.25 28.875 8.25H37.125C37.8543 8.25 38.5538 8.53973 39.0695 9.05546C39.5853 9.57118 39.875 10.2707 39.875 11V19.25C39.875 19.9793 39.5853 20.6788 39.0695 21.1945C38.5538 21.7103 37.8543 22 37.125 22H28.875C28.1457 22 27.4462 21.7103 26.9305 21.1945C26.4147 20.6788 26.125 19.9793 26.125 19.25V11ZM26.125 28.875C26.125 28.1457 26.4147 27.4462 26.9305 26.9305C27.4462 26.4147 28.1457 26.125 28.875 26.125H37.125C37.8543 26.125 38.5538 26.4147 39.0695 26.9305C39.5853 27.4462 39.875 28.1457 39.875 28.875V37.125C39.875 37.8543 39.5853 38.5538 39.0695 39.0695C38.5538 39.5853 37.8543 39.875 37.125 39.875H28.875C28.1457 39.875 27.4462 39.5853 26.9305 39.0695C26.4147 38.5538 26.125 37.8543 26.125 37.125V28.875ZM26.125 46.75C26.125 46.0207 26.4147 45.3212 26.9305 44.8055C27.4462 44.2897 28.1457 44 28.875 44H37.125C37.8543 44 38.5538 44.2897 39.0695 44.8055C39.5853 45.3212 39.875 46.0207 39.875 46.75V55C39.875 55.7293 39.5853 56.4288 39.0695 56.9445C38.5538 57.4603 37.8543 57.75 37.125 57.75H28.875C28.1457 57.75 27.4462 57.4603 26.9305 56.9445C26.4147 56.4288 26.125 55.7293 26.125 55V46.75ZM44 11C44 10.2707 44.2897 9.57118 44.8055 9.05546C45.3212 8.53973 46.0207 8.25 46.75 8.25H55C55.7293 8.25 56.4288 8.53973 56.9445 9.05546C57.4603 9.57118 57.75 10.2707 57.75 11V19.25C57.75 19.9793 57.4603 20.6788 56.9445 21.1945C56.4288 21.7103 55.7293 22 55 22H46.75C46.0207 22 45.3212 21.7103 44.8055 21.1945C44.2897 20.6788 44 19.9793 44 19.25V11ZM44 28.875C44 28.1457 44.2897 27.4462 44.8055 26.9305C45.3212 26.4147 46.0207 26.125 46.75 26.125H55C55.7293 26.125 56.4288 26.4147 56.9445 26.9305C57.4603 27.4462 57.75 28.1457 57.75 28.875V37.125C57.75 37.8543 57.4603 38.5538 56.9445 39.0695C56.4288 39.5853 55.7293 39.875 55 39.875H46.75C46.0207 39.875 45.3212 39.5853 44.8055 39.0695C44.2897 38.5538 44 37.8543 44 37.125V28.875ZM44 46.75C44 46.0207 44.2897 45.3212 44.8055 44.8055C45.3212 44.2897 46.0207 44 46.75 44H55C55.7293 44 56.4288 44.2897 56.9445 44.8055C57.4603 45.3212 57.75 46.0207 57.75 46.75V55C57.75 55.7293 57.4603 56.4288 56.9445 56.9445C56.4288 57.4603 55.7293 57.75 55 57.75H46.75C46.0207 57.75 45.3212 57.4603 44.8055 56.9445C44.2897 56.4288 44 55.7293 44 55V46.75Z" fill="#141E46"/>
</svg>
